<svg xmlns="http://www.w3.org/2000/svg" viewBox="0 0 24 24" fill="none">
  <rect width="24" height="24" rx="2" fill="#2496ED"/>
  <g fill="white">
    <rect x="3" y="10" width="2" height="2"/>
    <rect x="6" y="10" width="2" height="2"/>
    <rect x="9" y="10" width="2" height="2"/>
    <rect x="12" y="10" width="2" height="2"/>
    <rect x="15" y="10" width="2" height="2"/>
    <rect x="6" y="8" width="2" height="2"/>
    <rect x="9" y="8" width="2" height="2"/>
    <rect x="12" y="8" width="2" height="2"/>
    <rect x="9" y="6" width="2" height="2"/>
    <rect x="12" y="6" width="2" height="2"/>
    <rect x="12" y="4" width="2" height="2"/>
    <path d="M18 10c0-1.1-.9-2-2-2h-1v4h3v-2z"/>
    <path d="M19 12c1.1 0 2-.9 2-2s-.9-2-2-2v4z"/>
  </g>
</svg>