<svg xmlns="http://www.w3.org/2000/svg" viewBox="0 0 24 24" width="16" height="16">
  <path fill="#808080" d="M14,2H6A2,2 0 0,0 4,4V20A2,2 0 0,0 6,22H18A2,2 0 0,0 20,20V8L14,2M18,20H6V4H13V9H18V20Z"/>
  <!-- GitHub Cat Icon -->
  <path fill="#ffffff" d="M12,5.5C8.5,5.5 5.7,8.3 5.7,11.8C5.7,14.6 7.5,16.9 10,17.7C10.3,17.8 10.4,17.6 10.4,17.4V16.3C8.5,16.7 8.2,15.5 8.2,15.5C7.9,14.7 7.5,14.5 7.5,14.5C7,14 7.5,14 7.5,14C8.1,14.1 8.4,14.7 8.4,14.7C9,15.6 9.9,15.5 10.3,15.4C10.4,15 10.6,14.7 10.8,14.5C9.2,14.3 7.6,13.7 7.6,11.2C7.6,10.4 7.9,9.7 8.4,9.2C8.3,9 8.1,8.3 8.5,7.3C8.5,7.3 9.1,7.1 10.4,8C10.9,7.8 11.5,7.7 12,7.7C12.5,7.7 13.1,7.8 13.6,8C14.9,7.1 15.5,7.3 15.5,7.3C15.9,8.3 15.7,9 15.6,9.2C16.1,9.7 16.4,10.4 16.4,11.2C16.4,13.7 14.8,14.3 13.2,14.5C13.5,14.8 13.7,15.3 13.7,16V17.4C13.7,17.6 13.8,17.8 14.1,17.7C16.6,16.9 18.3,14.6 18.3,11.8C18.3,8.3 15.5,5.5 12,5.5Z"/>
</svg>

