<svg xmlns="http://www.w3.org/2000/svg" viewBox="0 0 24 24" width="24" height="24">
  <path fill="#F44336" d="M7 14c-1.66 0-3-1.34-3-3s1.34-3 3-3 3 1.34 3 3-1.34 3-3 3zm0-4c-.55 0-1 .45-1 1s.45 1 1 1 1-.45 1-1-.45-1-1-1z"/>
  <path fill="#F44336" d="M20 9h-8.79c-.45-.78-1.07-1.45-1.82-1.96-.75-.51-1.6-.86-2.52-1.01C6.31 6.01 5.66 6 5 6s-1.31.01-1.87.03c-.92.15-1.77.5-2.52 1.01C.14 7.55-.48 8.22-.93 9H2c.28-.48.62-.91 1.02-1.26.4-.35.85-.63 1.35-.82.5-.19 1.03-.29 1.58-.29s1.08.1 1.58.29c.5.19.95.47 1.35.82.4.35.74.78 1.02 1.26H20c.55 0 1 .45 1 1v8c0 .55-.45 1-1 1H10c-.55 0-1-.45-1-1v-2H7v2c0 1.66 1.34 3 3 3h10c1.66 0 3-1.34 3-3v-8c0-1.66-1.34-3-3-3z"/>
  <circle fill="#FFFFFF" cx="7" cy="11" r="0.5"/>
  <rect fill="#F44336" x="11" y="13" width="6" height="1" rx="0.5"/>
  <rect fill="#F44336" x="13" y="15" width="4" height="1" rx="0.5"/>
</svg>